# xmcd
#
# Track frame offsets:
#	150
#	15392
#	43764
#
# Disc length: 1109 seconds
#
# Revision: 0
# Processed by: cddbd v1.5.2PL0 Copyright (c) Steve Scherf et al.
# Submitted via: audiograbber 1.83.01
#
DISCID=19045303
DTITLE=Giovanni - wundervoll
DYEAR=2008
DGENRE=Pop
TTITLE0=Wundervoll - Sei Bellissima
TTITLE1=Se Tu Lo Vuoi
TTITLE2=Wundervoll - Sei Bellissima (Video)
EXTD=
EXTT0=
EXTT1=
EXTT2=
PLAYORDER=
